<?xml version="1.0" standalone="no"?>
<!DOCTYPE svg PUBLIC "-//W3C//DTD SVG 20010904//EN"
 "http://www.w3.org/TR/2001/REC-SVG-20010904/DTD/svg10.dtd">
<svg version="1.0" xmlns="http://www.w3.org/2000/svg"
 width="40.000000pt" height="40.000000pt" viewBox="0 0 40.000000 40.000000"
 preserveAspectRatio="xMidYMid meet">

<g transform="translate(0.000000,40.000000) scale(0.100000,-0.100000)"
fill="#000000" stroke="none">
<path d="M123 323 c9 -9 -33 -54 -44 -47 -5 3 -9 0 -9 -5 0 -19 26 -12 48 12
24 25 29 47 10 47 -6 0 -8 -3 -5 -7z"/>
<path d="M157 318 c2 -5 22 -8 43 -8 21 0 41 3 43 8 3 4 -17 7 -43 7 -26 0
-46 -3 -43 -7z"/>
<path d="M260 317 c0 -16 42 -57 58 -57 7 0 12 5 12 12 0 6 -3 8 -7 5 -9 -9
-54 33 -47 44 3 5 0 9 -5 9 -6 0 -11 -6 -11 -13z"/>
<path d="M124 268 l-19 -23 23 19 c21 18 27 26 19 26 -2 0 -12 -10 -23 -22z"/>
<path d="M265 270 c10 -11 20 -20 23 -20 3 0 -3 9 -13 20 -10 11 -20 20 -23
20 -3 0 3 -9 13 -20z"/>
<path d="M75 200 c0 -26 3 -46 8 -43 4 2 7 22 7 43 0 21 -3 41 -7 43 -5 3 -8
-17 -8 -43z"/>
<path d="M317 243 c-9 -9 -9 -81 1 -86 4 -3 7 17 7 44 0 27 0 49 -1 49 0 0 -4
-3 -7 -7z"/>
<path d="M125 130 c10 -11 20 -20 23 -20 3 0 -3 9 -13 20 -10 11 -20 20 -23
20 -3 0 3 -9 13 -20z"/>
<path d="M264 128 l-19 -23 23 19 c21 18 27 26 19 26 -2 0 -12 -10 -23 -22z"/>
<path d="M66 124 c-5 -13 -4 -14 7 -6 11 9 19 6 36 -12 22 -23 22 -25 4 -36
-17 -11 -17 -11 0 -6 10 3 21 6 23 6 12 0 1 29 -19 48 -28 26 -43 28 -51 6z"/>
<path d="M282 117 c-23 -25 -29 -47 -11 -47 5 0 8 4 5 9 -7 11 38 53 47 44 4
-3 7 -1 7 5 0 20 -25 14 -48 -11z"/>
<path d="M157 83 c-3 -5 17 -8 43 -8 26 0 46 3 43 8 -2 4 -22 7 -43 7 -21 0
-41 -3 -43 -7z"/>
<path d="M55 60 c3 -5 11 -10 16 -10 6 0 7 5 4 10 -3 6 -11 10 -16 10 -6 0 -7
-4 -4 -10z"/>
</g>
</svg>
